<svg xmlns="http://www.w3.org/2000/svg" version="1.1" xmlns:xlink="http://www.w3.org/1999/xlink" xmlns:svgjs="http://svgjs.dev/svgjs" width="1500" height="1191" viewBox="0 0 1500 1191"><g transform="matrix(1,0,0,1,-0.6596233348644773,0.48307664946526074)"><svg viewBox="0 0 311 247" data-background-color="#ffffff" preserveAspectRatio="xMidYMid meet" height="1191" width="1500" xmlns="http://www.w3.org/2000/svg" xmlns:xlink="http://www.w3.org/1999/xlink"><g id="tight-bounds" transform="matrix(1,0,0,1,0.1367619047618973,-0.09997365579206985)"><svg viewBox="0 0 310.7264761904762 247.2" height="247.2" width="310.7264761904762"><g><svg viewBox="0 0 310.7264761904762 247.2" height="247.2" width="310.7264761904762"><g><svg viewBox="0 0 310.7264761904762 247.2" height="247.2" width="310.7264761904762"><g id="textblocktransform"><svg viewBox="0 0 310.7264761904762 247.2" height="247.2" width="310.7264761904762" id="textblock"><g><svg viewBox="0 0 310.7264761904762 247.2" height="247.2" width="310.7264761904762"><path d="M309.999 53.02C308.538 27.36 304.375 20.227 304.375 20.227 291.593-6.202 275.641-0.506 261.311 3.292 236.01 3.446 210.811 9.091 185.569 12.119 132.586 12.581 79.15 4.986 26.43 23.717 21.478 29.464-5.138 24.846 0.881 56.304 2.459 69.39 8.214 83.913 8.039 95.922 8.828 98.026 9.923 93.202 10.391 96.23 12.027 104.39 14.7 100.541 16.891 105.365 13.838 118.246 16.029 128.971 18.118 140.21 14.437 143.135 9.719 141.749 7.6 151.449 7.381 158.479 6.198 157.145 4.898 156.837 3.949 156.632 2.035 157.402 2.356 159.608 3.452 167.152-1.252 171.514 1.699 178.904-0.332 186.91 3.101 193.838 2.634 202.511 2.575 204.255 2.897 205.744 3.408 206.154 5.672 208.361 2.371 212.672 2.721 217.342 25.948 249.262 51.147 227.195 74.943 241.872 81.122 231.608 76.477 245.516 78.946 243.36 80.874 240.846 82.276 251.263 84.453 245.362 84.789 243.668 84.277 239.665 85.475 240.435 86.103 240.846 86.659 240.743 86.746 238.382 86.878 234.841 85.724 237.048 85.417 235.201 88.733 225.861 87.915 248.081 91.026 247.158 90.88 244.438 89.975 240.538 91.83 241.051 93.67 237.151 93.729 233.918 95.365 242.693 95.423 244.592 95.715 245.926 96.183 246.85 101.296 237.305 106.379 250.237 111.74 245.926 115.027 241.205 118.182 248.492 121.513 246.696 122.682 245.259 123.865 242.693 124.99 247.004 138.765 247.928 153.446 244.079 166.505 247.158 201.404 241.41 238.698 249.518 275.495 241.923 284.172 238.998 293.185 234.841 301.643 231.506 301.643 231.506 308.494 222.371 308.494 181.316S309.955 145.393 310.174 112.703C310.393 80.013 311.416 78.679 309.955 53.02Z" opacity="1" fill="#7e91c6" data-fill-palette-color="tertiary"></path><g transform="matrix(1,0,0,1,55.76832,26.230666666666668)"><svg width="199.1898361904762" viewBox="2.4 -35 35.800000000000004 35" height="194.73866666666666" data-palette-color="#ffffff"><path d="M7.4 0L2.4 0 7.1-35 11.15-35 20.35-17.65 29.45-35 33.55-35 38.2 0 33.2 0 29.65-28.55 30.9-28.35 20.4-8.3 9.7-28.35 10.95-28.55 7.4 0Z" opacity="1" transform="matrix(1,0,0,1,0,0)" fill="#ffffff" class="wordmark-text-0" data-fill-palette-color="quaternary" id="text-0"></path></svg></g></svg></g></svg></g></svg></g><g></g></svg></g><defs></defs></svg><rect width="310.7264761904762" height="247.2" fill="none" stroke="none" visibility="hidden"></rect></g></svg></g></svg>